<?xml version="1.0" standalone="no"?>
<!DOCTYPE svg PUBLIC "-//W3C//DTD SVG 1.1//EN" "http://www.w3.org/Graphics/SVG/1.1/DTD/svg11.dtd" >
<svg>
<metadata>
Created by FontForge 20090622 at Sat Mar  4 20:07:56 2017
 By deploy user
Copyright (c) 2015 by Mathieu Desjardins. All rights reserved.
</metadata>
<defs>
<font id="PierSans-Bold" horiz-adv-x="500" >
  <font-face 
    font-family="Pier Sans"
    font-weight="700"
    font-stretch="normal"
    units-per-em="1000"
    panose-1="2 0 8 5 4 0 0 2 0 3"
    ascent="745"
    descent="-255"
    x-height="494"
    cap-height="750"
    bbox="-72 -249 1019 1006"
    underline-thickness="0"
    underline-position="0"
    unicode-range="U+0020-U+2212"
  />
<missing-glyph 
d="M27 -239v989h431v-989h-431zM130 -145h225v801h-225v-801z" />
    <glyph glyph-name=".notdef" 
d="M27 -239v989h431v-989h-431zM130 -145h225v801h-225v-801z" />
    <glyph glyph-name=".null" horiz-adv-x="0" 
 />
    <glyph glyph-name="nonmarkingreturn" horiz-adv-x="333" 
 />
    <glyph glyph-name="space" unicode=" " horiz-adv-x="300" 
 />
    <glyph glyph-name="exclam" unicode="!" horiz-adv-x="323" 
d="M242 750l-12 -556h-147l-12 556h171zM238 67q0 -32 -24 -54.5t-58 -22.5t-57.5 22.5t-23.5 54.5t23.5 54t57.5 22t58 -22t24 -54z" />
    <glyph glyph-name="quotedbl" unicode="&#x22;" horiz-adv-x="423" 
d="M222 624q0 -29 -17 -52l1 1l-95 -138h-86l41 122q-31 28 -31 67q0 37 27 62.5t66 25.5q40 0 67 -25.5t27 -62.5zM454 624q0 -27 -17 -52l1 1l-96 -138h-85l40 122q-31 29 -31 67q0 37 27.5 62.5t65.5 25.5q40 0 67.5 -25.5t27.5 -62.5z" />
    <glyph glyph-name="numbersign" unicode="#" horiz-adv-x="967" 
d="M856 370h-176l-32 -84h121v-140h-172l-53 -146h-157l53 146h-112l-53 -146h-158l56 146h-92v140h142l32 84h-87v140h138l55 151h156l-56 -151h113l56 151h156l-56 -151h126v-140zM491 286l32 84h-112l-30 -84h110z" />
    <glyph glyph-name="dollar" unicode="$" horiz-adv-x="657" 
d="M229 540q0 -14 3 -23v1q2 -5 4 -9t4 -6.5t5.5 -5.5t5.5 -4.5t7 -4.5t7 -4t8.5 -4t8.5 -4v140q-32 -12 -45 -39q-8 -16 -8 -37zM459 235l-7 8q-2 6 -5.5 11.5t-6.5 9t-9.5 8t-9 5.5t-12 6l-11.5 6v-152q37 16 53 51q5 15 5 29q0 18 3 18zM398 -121h-116v114
q-139 18 -251 139l112 111l14.5 -24.5t9 -15.5t3.5 -5q44 -48 112 -67v199q-50 16 -83 30t-68 43.5t-50 68.5q-12 34 -12 69q0 51 24 98q50 96 189 116v116h116v-120q124 -23 226 -135l-108 -108q-24 34 -32 42q-37 42 -86 62v-177q55 -18 86 -30.5t67.5 -42.5t52.5 -72
q13 -29 13 -73q0 -42 -17 -81h1q-23 -53 -76.5 -89t-126.5 -49v-119z" />
    <glyph glyph-name="percent" unicode="%" horiz-adv-x="925" 
d="M201 619q-20 0 -33.5 -16t-13.5 -37t13.5 -36t33.5 -15q19 0 33 15t14 36t-14 37t-33 16zM201 750q78 0 133 -54t55 -130t-54.5 -129.5t-133.5 -53.5q-78 0 -133 53.5t-55 129.5t55 130t133 54zM670 234q-19 0 -33 -15t-14 -36q0 -22 14 -37.5t33 -15.5q20 0 34 15.5
t14 37.5q0 21 -14 36t-34 15zM670 366q79 0 134 -53.5t55 -129.5t-55 -130t-134 -54q-78 0 -132.5 54t-54.5 130t54.5 129.5t132.5 53.5zM377 0h-158l277 750h156z" />
    <glyph glyph-name="ampersand" unicode="&#x26;" horiz-adv-x="737" 
d="M731 0h-202l-40 44q-79 -53 -209 -53q-113 1 -190.5 76.5t-77.5 187.5q0 65 29.5 123t79.5 96q-30 45 -30 102q0 78 55.5 130t134.5 52q80 0 135 -51.5t55 -130.5q0 -66 -42 -121l-3 -3q-2 -3 -5 -6l-8 -8t-11.5 -10t-15.5 -11t-19 -11l112 -124q9 37 12 53l151 -27
q-8 -86 -52 -151zM281 623q-16 0 -26.5 -13.5t-10.5 -33.5t10.5 -34t26.5 -14t27 14t11 34q0 19 -11 33t-27 14zM391 156l-181 202q-45 -38 -45 -103q0 -53 34 -91.5t82 -38.5q54 0 110 31z" />
    <glyph glyph-name="quotesingle" unicode="'" horiz-adv-x="250" 
d="M220 624q0 -27 -17 -52l1 1l-96 -138h-85l40 122q-31 28 -31 67q0 37 27 62.5t66 25.5q40 0 67.5 -25.5t27.5 -62.5z" />
    <glyph glyph-name="parenleft" unicode="(" horiz-adv-x="368" 
d="M213 332q0 -73 16.5 -138.5t37 -106t49 -75t43 -47.5t27.5 -22l-67 -120q-265 187 -265 509t265 507l67 -118q-13 -9 -27.5 -22t-43 -48t-49 -75t-37 -105.5t-16.5 -138.5z" />
    <glyph glyph-name="parenright" unicode=")" horiz-adv-x="388" 
d="M143 332q0 73 -16.5 138.5t-37 105.5t-49 75.5t-42 47.5t-27.5 22l66 118q266 -185 266 -507t-266 -509l-66 120q14 10 27.5 22t42 47.5t49 75.5t37 105.5t16.5 138.5z" />
    <glyph glyph-name="asterisk" unicode="*" horiz-adv-x="320" 
d="M306 647v-104l-98 20l78 -81l-90 -52l-41 100l-36 -100l-94 53l76 80l-97 -20v104l97 -20l-77 71l93 51l39 -86l40 86l90 -52l-77 -70z" />
    <glyph glyph-name="plus" unicode="+" horiz-adv-x="546" 
d="M455 222h-128v-127h-135v127h-127v126h127v127h135v-127h128v-126z" />
    <glyph glyph-name="comma" unicode="," horiz-adv-x="190" 
d="M200 82q0 -29 -17 -52l1 1l-95 -138h-86l41 122q-31 28 -31 67q0 37 27 63t65 26q40 0 67.5 -26t27.5 -63z" />
    <glyph glyph-name="hyphen" unicode="-" horiz-adv-x="536" 
d="M455 329v-126h-390v126h390z" />
    <glyph glyph-name="period" unicode="." horiz-adv-x="259" 
d="M221 81q0 -38 -27.5 -64t-67.5 -26t-67 26t-27 64q0 36 27.5 62t66.5 26q40 0 67.5 -26t27.5 -62z" />
    <glyph glyph-name="slash" unicode="/" horiz-adv-x="440" 
d="M165 0h-157l276 750h156z" />
    <glyph glyph-name="zero" unicode="0" horiz-adv-x="679" 
d="M357 758q112 0 190 -74.5t79 -184.5l1 -1l-1 -247q-1 -112 -78.5 -186t-190.5 -74q-112 0 -190 74t-79 186v247q1 111 79 185.5t190 74.5zM474 255v239q0 52 -34 85.5t-83 33.5q-48 0 -82 -33.5t-34 -85.5v-239q0 -52 34 -86t82 -34q49 0 83 34t34 86z" />
    <glyph glyph-name="one" unicode="1" horiz-adv-x="426" 
d="M104 750h265v-750h-160v617h-105v133z" />
    <glyph glyph-name="two" unicode="2" horiz-adv-x="655" 
d="M369 133h233v-133h-485v133q4 3 14 9q335 215 335 377q0 40 -22.5 67.5t-63.5 27.5q-83 6 -115 -110l-148 32q23 116 118 180q70 46 151 43q114 -6 181 -88q52 -67 52 -152q0 -30 -7.5 -60.5t-17 -55t-29 -54.5t-33.5 -48.5t-41 -47.5l-40 -42l-43.5 -41.5t-38.5 -36.5z
" />
    <glyph glyph-name="three" unicode="3" horiz-adv-x="671" 
d="M616 750l-186 -254q67 -36 107.5 -100.5t40.5 -140.5q0 -113 -81 -188.5t-198 -75.5q-68 0 -131.5 36.5t-109.5 98.5l141 60q50 -50 100 -50q52 0 88.5 34t36.5 85t-33 88.5t-84 39.5h-132l171 233h-195v134h465z" />
    <glyph glyph-name="four" unicode="4" horiz-adv-x="643" 
d="M567 0h-160v187h-329v105l334 458h155v-430h61v-133h-61v-187zM285 320h122v172z" />
    <glyph glyph-name="five" unicode="5" horiz-adv-x="635" 
d="M359 529q102 1 175.5 -69t73.5 -203q0 -110 -81.5 -187.5t-191.5 -77.5q-132 0 -229 130l121 90q42 -67 93 -75q49 -6 90.5 29.5t41.5 90.5q0 54 -25 87.5t-72 38.5q-63 7 -92 -26h-128v393h402v-133h-241v-101q27 16 63 13z" />
    <glyph glyph-name="six" unicode="6" horiz-adv-x="663" 
d="M520 750l-126 -222q107 -7 180 -85.5t73 -187.5q0 -112 -78 -187.5t-191 -75.5t-191.5 75.5t-78.5 187.5q0 69 38 138l200 357h174zM378 126q48 0 82.5 38t34.5 91t-34.5 91.5t-82.5 38.5q-47 0 -81.5 -38.5t-34.5 -91.5t34.5 -91t81.5 -38z" />
    <glyph glyph-name="seven" unicode="7" horiz-adv-x="615" 
d="M79 750h578l-418 -750h-176l346 617h-330v133z" />
    <glyph glyph-name="eight" unicode="8" horiz-adv-x="643" 
d="M539 566q0 -56 -30 -103q109 -81 109 -209q0 -112 -78 -187.5t-191 -75.5t-191.5 75.5t-78.5 187.5q0 127 107 209q-28 47 -28 103q0 80 56 136t135 56q78 0 134 -56.5t56 -135.5zM301 566q0 -19 15.5 -33.5t32.5 -14.5q16 0 31.5 14.5t15.5 33.5t-15.5 33t-31.5 14
q-17 0 -32.5 -14t-15.5 -33zM349 135q48 0 82 33.5t34 85.5t-34 86t-82 34q-49 0 -83 -34t-34 -86t34 -85.5t83 -33.5z" />
    <glyph glyph-name="nine" unicode="9" horiz-adv-x="639" 
d="M627 495q0 -71 -36 -138l-202 -357h-172l124 221q-107 7 -180 86t-73 188q0 112 78 188t191 76t191.5 -76t78.5 -188zM241 495q0 -53 34.5 -91t81.5 -38q48 0 82.5 38t34.5 91t-34.5 91t-82.5 38q-47 0 -81.5 -38t-34.5 -91z" />
    <glyph glyph-name="colon" unicode=":" horiz-adv-x="241" 
d="M211 382q0 -38 -27.5 -64t-67.5 -26q-39 0 -66.5 26.5t-27.5 63.5t27.5 63t66.5 26q40 0 67.5 -26t27.5 -63zM211 81q0 -38 -27.5 -64t-67.5 -26q-39 0 -66.5 26t-27.5 64q0 36 27.5 62t66.5 26q40 0 67.5 -26t27.5 -62z" />
    <glyph glyph-name="semicolon" unicode=";" horiz-adv-x="269" 
d="M231 382q0 -38 -27.5 -64t-67.5 -26q-39 0 -66.5 26.5t-27.5 63.5t27.5 63t66.5 26q40 0 67.5 -26t27.5 -63zM231 82q0 -29 -17 -52l1 1l-95 -138h-86l41 122q-31 28 -31 67q0 37 27 63t65 26q40 0 67.5 -26t27.5 -63z" />
    <glyph glyph-name="less" unicode="&#x3c;" horiz-adv-x="484" 
d="M36 245v81l397 271v-158l-228 -154l228 -153v-158z" />
    <glyph glyph-name="equal" unicode="=" horiz-adv-x="546" 
d="M455 425v-126h-390v126h390zM455 214v-126h-390v126h390z" />
    <glyph glyph-name="greater" unicode="&#x3e;" horiz-adv-x="484" 
d="M433 326v-81l-397 -271v158l227 153l-227 154v158z" />
    <glyph glyph-name="question" unicode="?" horiz-adv-x="549" 
d="M356 58q0 -32 -24 -54.5t-58 -22.5t-57 22.5t-23 54.5t23 54t57 22t58 -22t24 -54zM351 194h-155q-1 60 6.5 97t31.5 65q26 31 62 65t51.5 55t22.5 50q14 61 -37 92q-45 28 -95 8q-61 -24 -62 -99q0 -12 2 -25l-152 15q0 133 105 203q88 59 197 44q111 -15 163 -98
q33 -51 33 -121q0 -45 -24 -85t-69 -89.5t-63 -75.5q-18 -27 -17 -101z" />
    <glyph glyph-name="at" unicode="@" horiz-adv-x="979" 
d="M456 106q52 0 84 42.5t32 104.5t-32.5 104.5t-83.5 42.5q-48 0 -81.5 -43t-33.5 -104t33.5 -104t81.5 -43zM695 508v-400q0 -14 10.5 -37.5t29.5 -23.5q67 0 67 202q0 159 -83.5 248t-238.5 89q-51 0 -106 -19t-107.5 -56.5t-86 -104t-33.5 -150.5q0 -147 93 -240
q98 -98 258 -101q42 0 70 11l111 -66q-59 -48 -181 -48q-121 0 -228.5 59t-172.5 162.5t-63 224.5q0 115 64 215t167 158t217 58q187 0 309.5 -126t122.5 -311q0 -50 -8.5 -102t-29 -108t-63 -91t-100.5 -35q-48 0 -93 26t-59 65q-56 -28 -105 -28q-112 0 -190.5 80.5
t-78.5 193.5t78.5 193t190.5 80q26 0 54.5 -12.5t41.5 -29.5v24h143z" />
    <glyph glyph-name="A" unicode="A" horiz-adv-x="694" 
d="M383 750l308 -750h-172l-61 144h-255l-59 -144h-173l309 750h103zM254 277h154l-77 216z" />
    <glyph glyph-name="B" unicode="B" horiz-adv-x="652" 
d="M559 548q0 -68 -44 -127q83 -72 83 -182q0 -99 -69.5 -169t-168.5 -70h-306v750h306q83 0 141 -59t58 -143zM214 617v-139h149q14 4 25 24.5t11 45.5q0 28 -11.5 48.5t-27.5 20.5h-146zM360 133q32 0 54.5 31t22.5 75q0 43 -21.5 73.5t-52.5 32.5h-149v-212h146z" />
    <glyph glyph-name="C" unicode="C" horiz-adv-x="769" 
d="M605 228l106 -106q-117 -131 -295 -131q-161 0 -273 110.5t-112 273.5q0 162 112 272.5t273 110.5q178 0 296 -132l-108 -108q-31 51 -81 79t-107 28q-97 0 -161 -75t-64 -175t64 -175.5t161 -75.5q48 0 92 21.5t97 82.5z" />
    <glyph glyph-name="D" unicode="D" horiz-adv-x="792" 
d="M727 375q0 -155 -107 -264.5t-259 -110.5h-301v750h301q152 -1 259 -110.5t107 -264.5zM360 133q89 1 148 74t59 168q0 94 -59 167.5t-148 74.5h-140v-484h140z" />
    <glyph glyph-name="E" unicode="E" horiz-adv-x="676" 
d="M227 133h382v-133h-542v750h524v-133h-364v-161h298v-134h-298v-189z" />
    <glyph glyph-name="F" unicode="F" horiz-adv-x="638" 
d="M590 617h-363v-173h297v-133h-297v-311h-160v750h523v-133z" />
    <glyph glyph-name="G" unicode="G" horiz-adv-x="872" 
d="M451 441h342v-441h-160v65q-101 -74 -225 -74q-161 0 -273 110.5t-112 273.5q0 162 112 272.5t273 110.5q178 0 296 -132l-105 -105q-26 45 -80.5 74.5t-110.5 29.5q-97 0 -160.5 -75t-63.5 -175q0 -101 63.5 -176t160.5 -75q76 0 138.5 53t78.5 130h-174v134z" />
    <glyph glyph-name="H" unicode="H" horiz-adv-x="735" 
d="M484 750h160v-750h-160v308h-275v-308h-160v750h160v-308h275v308z" />
    <glyph glyph-name="I" unicode="I" horiz-adv-x="311" 
d="M221 750v-750h-160v750h160z" />
    <glyph glyph-name="J" unicode="J" horiz-adv-x="618" 
d="M390 750h161v-504q0 -50 -13 -93t-41.5 -80.5t-80 -59.5t-121.5 -22t-121.5 24t-80 64.5t-42 88t-13.5 101.5h160q0 -145 97 -145q95 0 95 122v504z" />
    <glyph glyph-name="K" unicode="K" horiz-adv-x="824" 
d="M806 750l-375 -317l363 -433h-214l-270 333l-70 -58v-275h-160v750h160v-286l335 286h231z" />
    <glyph glyph-name="L" unicode="L" horiz-adv-x="599" 
d="M208 133h314v-133h-475v750h161v-617z" />
    <glyph glyph-name="M" unicode="M" horiz-adv-x="1010" 
d="M928 750v-750h-160v438l-224 -438h-97l-224 438v-438h-160v750h172l260 -508l260 508h173z" />
    <glyph glyph-name="N" unicode="N" horiz-adv-x="838" 
d="M743 750v-750h-171l-332 492v-492h-161v750h170l333 -493v493h161z" />
    <glyph glyph-name="O" unicode="O" horiz-adv-x="832" 
d="M398 625q-96 0 -160.5 -75.5t-64.5 -174.5t64.5 -175t160.5 -76q97 0 161 75.5t64 175.5t-64 175t-161 75zM398 758q161 0 273 -110.5t112 -272.5q0 -163 -112 -273.5t-273 -110.5t-273 110.5t-112 273.5q0 162 112 272.5t273 110.5z" />
    <glyph glyph-name="P" unicode="P" horiz-adv-x="706" 
d="M645 468q0 -117 -80.5 -199t-194.5 -83h-141v-186h-161v750h302q114 -1 194.5 -83.5t80.5 -198.5zM368 319q48 0 82.5 44t34.5 105t-34.5 105t-82.5 44h-139v-298h139z" />
    <glyph glyph-name="Q" unicode="Q" horiz-adv-x="894" 
d="M832 29l-102 -96l-99 108q-76 -50 -203 -50q-161 0 -273.5 110.5t-112.5 273.5q0 162 112.5 272.5t273.5 110.5q160 0 272.5 -110.5t112.5 -272.5q0 -134 -81 -240zM428 124q63 0 103 25l-101 109l103 95l92 -102q27 61 27 124q0 100 -63.5 175t-160.5 75t-161 -75
t-64 -175q0 -96 62 -173.5t163 -77.5z" />
    <glyph glyph-name="R" unicode="R" horiz-adv-x="696" 
d="M636 477q0 -78 -38 -141t-103 -98l161 -238h-180l-137 204h-120v-204h-161v750h301q116 -1 196.5 -79t80.5 -194zM219 617v-280h139q49 0 83.5 40t34.5 100t-34.5 100t-83.5 40h-139z" />
    <glyph glyph-name="S" unicode="S" horiz-adv-x="677" 
d="M351 446q53 -16 92 -33t79.5 -44.5t62.5 -68.5t22 -93q0 -106 -80.5 -161t-208.5 -55q-93 0 -162.5 35.5t-134.5 105.5l112 111q21 -44 76 -81.5t109 -37.5q128 2 128 83q0 44 -37.5 68.5t-99.5 43.5q-51 15 -88.5 31.5t-77.5 43.5t-62 66.5t-22 90.5q0 97 76.5 152
t182.5 55q167 0 296 -142l-108 -108q-34 45 -83 81t-105 36q-41 0 -70 -18.5t-29 -56.5q0 -22 11.5 -39t34.5 -29.5t40.5 -19.5t45.5 -16z" />
    <glyph glyph-name="T" unicode="T" horiz-adv-x="599" 
d="M576 750v-133h-217v-617h-161v617h-217v133h595z" />
    <glyph glyph-name="U" unicode="U" horiz-adv-x="732" 
d="M495 750h161v-451q0 -41 -7 -79.5t-27.5 -81.5t-53.5 -74.5t-90 -52t-132 -20.5q-74 0 -131.5 20.5t-90.5 52t-54 74.5t-28 81.5t-7 79.5v451h160v-451q0 -16 1.5 -33t10.5 -44t24 -47.5t45 -35.5t70 -15t70 15t44.5 35t23 48t10 44t1.5 33v451z" />
    <glyph glyph-name="V" unicode="V" horiz-adv-x="670" 
d="M379 0h-100l-289 750h171l169 -459l167 459h171z" />
    <glyph glyph-name="W" unicode="W" horiz-adv-x="1030" 
d="M340 0h-94l-267 750h168l148 -437l156 437h95l155 -436l149 436h169l-267 -750h-95l-158 436z" />
    <glyph glyph-name="X" unicode="X" horiz-adv-x="709" 
d="M696 750l-260 -377l259 -373h-185l-167 239l-166 -239h-187l261 374l-261 376h187l167 -240l167 240h185z" />
    <glyph glyph-name="Y" unicode="Y" horiz-adv-x="689" 
d="M542 750h192l-310 -454v-296h-161v296l-310 454h192l198 -303z" />
    <glyph glyph-name="Z" unicode="Z" horiz-adv-x="745" 
d="M644 750v-137l-377 -480h377v-133h-567v137l378 480h-378v133h567z" />
    <glyph glyph-name="bracketleft" unicode="[" horiz-adv-x="303" 
d="M213 -28h105v-133h-265v1072h265v-133h-105v-806z" />
    <glyph glyph-name="backslash" unicode="\" horiz-adv-x="413" 
d="M423 0h-158l-274 750h155z" />
    <glyph glyph-name="bracketright" unicode="]" horiz-adv-x="303" 
d="M-25 -28h105v806h-105v133h266v-1072h-266v133z" />
    <glyph glyph-name="asciicircum" unicode="^" 
d="M326 736l125 -196h-137l-56 70l-56 -70h-138l127 196h135z" />
    <glyph glyph-name="underscore" unicode="_" horiz-adv-x="569" 
d="M541 0v-126h-530v126h530z" />
    <glyph glyph-name="grave" unicode="`" 
d="M305 540h-134l-115 135l140 71z" />
    <glyph glyph-name="a" unicode="a" horiz-adv-x="538" 
d="M163 348l-110 63q81 91 206 91q103 0 155.5 -46.5t52.5 -110.5v-345h-148v35q-40 -42 -110 -42q-187 0 -187 152q0 79 59.5 126.5t160.5 47.5h77q0 28 -19 44.5t-51 16.5q-57 0 -86 -32zM319 163v44h-87q-30 0 -48 -18.5t-14 -46.5q6 -38 62 -38q44 0 65.5 19t21.5 40z
" />
    <glyph glyph-name="b" unicode="b" horiz-adv-x="608" 
d="M311 501q108 0 174.5 -72t66.5 -183q0 -110 -71 -182t-180 -72q-26 0 -58.5 12.5t-43.5 28.5v-33h-148v726h148v-267q12 17 48.5 29.5t63.5 12.5zM291 104q47 0 80 42t33 100q0 59 -33 101t-80 42q-48 0 -80 -45t-32 -98t32 -97.5t80 -44.5z" />
    <glyph glyph-name="c" unicode="c" horiz-adv-x="545" 
d="M395 177l104 -94q-82 -91 -207 -91q-109 0 -184.5 72.5t-75.5 181.5t75.5 182t184.5 73q125 0 207 -91l-104 -94q-27 63 -103 63q-47 0 -79.5 -37.5t-32.5 -95.5q0 -57 32.5 -94.5t79.5 -37.5q78 0 103 63z" />
    <glyph glyph-name="d" unicode="d" horiz-adv-x="581" 
d="M22 246q0 111 66.5 183t174.5 72q27 0 63.5 -12t48.5 -29v266h149v-726h-149v33q-13 -17 -44.5 -29t-57.5 -12q-109 0 -180 72t-71 182zM171 246q0 -59 33 -100.5t79 -41.5q48 0 80 44.5t32 97.5t-31.5 98t-80.5 45q-46 0 -79 -42t-33 -101z" />
    <glyph glyph-name="e" unicode="e" horiz-adv-x="583" 
d="M541 246v-33h-352q0 -41 34.5 -70t73.5 -29q82 0 115 61l99 -91q-68 -92 -214 -92q-119 0 -190 71t-71 183t68.5 183.5t183.5 71.5t184 -71t69 -184zM192 307h194q-12 72 -98 72q-39 0 -64 -19.5t-32 -52.5z" />
    <glyph glyph-name="f" unicode="f" horiz-adv-x="393" 
d="M347 709v-117q-22 20 -63 20q-18 0 -29.5 -8.5t-16.5 -24.5t-6.5 -29.5t-1.5 -32.5v-23h117v-122h-117v-372h-148v372h-55v122h55v23q0 116 44 167t140 51q38 0 81 -26z" />
    <glyph glyph-name="g" unicode="g" horiz-adv-x="601" 
d="M385 494h148v-479q0 -111 -73.5 -187.5t-187.5 -76.5t-205 101l105 95q25 -38 48 -56t52 -18q51 0 81.5 47.5t30.5 113.5q-13 -17 -45 -29t-57 -12q-108 0 -179 72t-71 182t71 182.5t179 72.5q27 0 59 -12t44 -29v33zM292 104q48 0 80.5 45t32.5 98q0 54 -32 98.5
t-81 44.5q-46 0 -79 -42t-33 -101q0 -58 33 -100.5t79 -42.5z" />
    <glyph glyph-name="h" unicode="h" horiz-adv-x="586" 
d="M519 282v-282h-148v282q0 58 -17.5 83t-60.5 25q-95 0 -95 -108v-282h-148v726h148v-287q21 62 134 62q102 0 144.5 -51.5t42.5 -167.5z" />
    <glyph glyph-name="i" unicode="i" horiz-adv-x="261" 
d="M195 494v-494h-148v494h148zM199 636q0 -32 -22.5 -53.5t-56.5 -21.5q-32 0 -55 22t-23 53t23 52t55 21q34 0 56.5 -21t22.5 -52z" />
    <glyph glyph-name="j" unicode="j" horiz-adv-x="299" 
d="M231 636q0 -32 -22.5 -53.5t-55.5 -21.5t-56 22t-23 53t23 52t56 21t55.5 -21t22.5 -52zM-50 -153v134q1 -1 7 -5t7 -4.5t6 -3.5t7 -3.5t6.5 -2.5t8 -2.5t8.5 -1.5t10.5 -1h12.5q8 0 16 3t17 10.5t15 24.5t6 41v458h148v-458q0 -116 -38 -167.5t-111 -51.5q-42 0 -59 4
t-67 26z" />
    <glyph glyph-name="k" unicode="k" horiz-adv-x="589" 
d="M377 0l-160 203q-2 -2 -4.5 -4l-6.5 -5t-6 -5v-189h-149v726h149v-356l142 124h221l-239 -200l239 -294h-186z" />
    <glyph glyph-name="l" unicode="l" horiz-adv-x="264" 
d="M191 744v-744h-149v744h149z" />
    <glyph glyph-name="m" unicode="m" horiz-adv-x="923" 
d="M849 0h-149v282q0 58 -17.5 83t-59.5 25q-95 0 -95 -108v-282h-149v282q0 58 -17.5 83t-59.5 25q-96 0 -96 -108v-282h-148v494h148v-45q52 52 135 52q95 0 147 -67q50 61 172 67q103 0 146 -51.5t43 -167.5v-282z" />
    <glyph glyph-name="n" unicode="n" horiz-adv-x="569" 
d="M509 282v-282h-148v282q0 57 -17.5 82.5t-60.5 25.5q-95 0 -95 -108v-282h-148v494h148v-47q55 54 133 54q103 0 145.5 -51.5t42.5 -167.5z" />
    <glyph glyph-name="o" unicode="o" horiz-adv-x="587" 
d="M283 379q-47 0 -79.5 -37.5t-32.5 -95.5q0 -57 32.5 -94.5t79.5 -37.5t80 37t33 95t-33 95.5t-80 37.5zM283 501q110 0 185.5 -73t75.5 -182t-75.5 -181.5t-185.5 -72.5q-109 0 -184.5 72.5t-75.5 181.5t75.5 182t184.5 73z" />
    <glyph glyph-name="p" unicode="p" horiz-adv-x="601" 
d="M556 246q0 -111 -67 -182.5t-175 -71.5q-24 0 -60 12.5t-52 28.5v-265h-148v726h148v-35q35 42 102 42q109 0 180.5 -72.5t71.5 -182.5zM407 246q0 59 -33 101t-80 42q-28 0 -54 -19t-41 -49q-16 -36 -16 -75q0 -40 16 -74q35 -68 95 -68q47 0 80 42t33 100z" />
    <glyph glyph-name="q" unicode="q" horiz-adv-x="613" 
d="M263 -8q-108 0 -174.5 71.5t-66.5 182.5q0 110 71 182.5t180 72.5q27 0 59 -12t43 -29v34h149v-726h-149v265q-11 -16 -48 -28.5t-64 -12.5zM283 389q-47 0 -80 -42t-33 -101q0 -58 33 -100t80 -42q48 0 80 44.5t32 97.5q0 52 -32 97.5t-80 45.5z" />
    <glyph glyph-name="r" unicode="r" horiz-adv-x="378" 
d="M375 487l-20 -111q-30 13 -61 13q-95 0 -95 -111v-278h-148v494h148v-44q13 24 44.5 37.5t59.5 13.5q47 0 72 -14z" />
    <glyph glyph-name="s" unicode="s" horiz-adv-x="469" 
d="M174 338q0 -13 18.5 -23.5t46.5 -16.5t60 -17t60 -25t46.5 -41t18.5 -64q0 -74 -57.5 -116.5t-144.5 -42.5q-107 0 -198 91l97 97q48 -58 101 -63q24 -2 43 6t23 20q3 11 -1.5 19t-15 12t-21 7t-23.5 5t-17 3q-37 11 -61 21t-52.5 28t-43 44.5t-14.5 61.5q0 41 19.5 73.5
t49.5 49.5t59.5 25.5t54.5 8.5q110 0 198 -90l-96 -96q-20 26 -49.5 43.5t-52.5 17.5q-17 0 -32.5 -8.5t-15.5 -29.5z" />
    <glyph glyph-name="t" unicode="t" horiz-adv-x="416" 
d="M224 210q0 -20 1 -31t5.5 -29t16.5 -27t31 -9q29 0 63 25v-122q-44 -25 -81 -25q-98 0 -141 49t-43 169v162h-55v122h55v142h148v-142h117v-122h-117v-162z" />
    <glyph glyph-name="u" unicode="u" horiz-adv-x="589" 
d="M49 212v282h148v-282q0 -58 18 -83t60 -25q95 0 95 108v282h148v-494h-148v45q-20 -25 -58.5 -39t-73.5 -14q-103 0 -146 51.5t-43 168.5z" />
    <glyph glyph-name="v" unicode="v" horiz-adv-x="519" 
d="M297 0h-97l-209 494h153l104 -282q18 46 54 145.5l50 136.5h152z" />
    <glyph glyph-name="w" unicode="w" horiz-adv-x="761" 
d="M592 494h151l-188 -494h-97l-92 239l-90 -239h-98l-189 494h152l86 -272l85 272h109l85 -273z" />
    <glyph glyph-name="x" unicode="x" horiz-adv-x="490" 
d="M482 494l-175 -247l175 -247h-170l-84 136l-84 -136h-171l176 247l-176 247h170l84 -135l43 68.5t42 66.5h170z" />
    <glyph glyph-name="y" unicode="y" horiz-adv-x="558" 
d="M383 494h154l-203 -480q-29 -69 -49 -108.5t-47 -77t-57.5 -53.5t-69.5 -16q-43 0 -112 55l43 122q33 -31 67 -31q12 0 23 7t21 23.5t16 27.5t14.5 37l11 34t9.5 34l-181 426h154l103 -247z" />
    <glyph glyph-name="z" unicode="z" horiz-adv-x="502" 
d="M420 494v-109l-203 -263h203v-122h-376v114l202 258h-202v122h376z" />
    <glyph glyph-name="braceleft" unicode="{" horiz-adv-x="471" 
d="M334 187q-2 -38 -1 -67.5t8 -51t22.5 -35.5t43.5 -20.5t71 -6.5v-146q-160 0 -229 66q-50 50 -62 123v-1q-5 21 -6 77t-4.5 101.5t-16.5 57.5q-23 21 -105 20v143q2 0 19.5 -0.5t24.5 0t20.5 2.5t23 6t17.5 11q13 12 16.5 58t4.5 101.5t6 76.5q12 73 62 123q68 68 229 65
v-145q-62 0 -103 -22t-41 -71q0 -7 0.5 -47.5t0 -55t-3.5 -48.5t-8.5 -51.5t-16.5 -39t-27 -34.5q55 -63 55 -189z" />
    <glyph glyph-name="braceright" unicode="}" horiz-adv-x="471" 
d="M121 187q0 126 55 189q-16 13 -27 34.5t-16.5 39t-8.5 51.5t-3.5 48.5t0 55t0.5 47.5q0 49 -41 71t-103 22v145q161 3 229 -65q50 -50 62 -123q5 -21 6 -76.5t4.5 -101.5t16.5 -58q8 -7 17.5 -11t23 -6t20 -2.5t24 0t19.5 0.5v-143q-81 1 -104 -20q-13 -12 -16.5 -57.5
t-4.5 -101.5t-6 -77v1q-12 -73 -62 -123q-69 -66 -229 -66v146q43 0 71 6.5t43.5 20.5t22.5 35.5t8 51t-1 67.5z" />
    <glyph glyph-name="sterling" unicode="&#xa3;" horiz-adv-x="559" 
d="M302 250q-1 -4 -6 -22.5t-7.5 -25.5l-8 -21.5t-12 -25.5t-15.5 -22h261v-133h-485q0 36 10.5 68.5t21.5 51.5t32 49q40 57 51 81h-116v107h110q-30 84 -30 149q0 88 61 165q66 82 181 88q82 4 173 -57l-83 -124q-34 36 -84 36q-40 0 -66 -34q-60 -76 11 -223h167v-107
h-166z" />
    <glyph glyph-name="yen" unicode="&#xa5;" horiz-adv-x="649" 
d="M573 131h-169v-131h-160v131h-173v107h173v17h-173v107h129l-266 388h192l198 -303l198 303h192l-266 -388h125v-107h-169v-17h169v-107z" />
    <glyph glyph-name="dieresis" unicode="&#xa8;" 
d="M239 636q0 -31 -23 -53t-56 -22t-55.5 21.5t-22.5 53.5q0 31 22.5 52t55.5 21t56 -21t23 -52zM429 636q0 -31 -23 -53t-56 -22t-56 22t-23 53t23 52t56 21t56 -21t23 -52z" />
    <glyph glyph-name="guillemotleft" unicode="&#xab;" horiz-adv-x="665" 
d="M36 245v81l247 167v-148l-108 -60l108 -62v-148zM304 245v81l247 167v-148l-108 -60l108 -62v-148z" />
    <glyph glyph-name="degree" unicode="&#xb0;" horiz-adv-x="316" 
d="M152 665q-17 0 -30.5 -19t-13.5 -44t13.5 -43t30.5 -18q18 0 31.5 18t13.5 43t-13.5 44t-31.5 19zM152 750q62 0 105 -43t43 -105q0 -61 -43 -103.5t-105 -42.5q-61 0 -104 42.5t-43 103.5t43 104.5t104 43.5z" />
    <glyph glyph-name="plusminus" unicode="&#xb1;" 
d="M455 287h-128v-128h-135v128h-127v125h127v128h135v-128h128v-125zM455 0h-390v126h390v-126z" />
    <glyph glyph-name="acute" unicode="&#xb4;" 
d="M375 550h-134l109 206l139 -71z" />
    <glyph glyph-name="periodcentered" unicode="&#xb7;" horiz-adv-x="261" 
d="M221 81q0 -38 -27.5 -64t-67.5 -26t-67 26t-27 64q0 36 27.5 62t66.5 26q40 0 67.5 -26t27.5 -62z" />
    <glyph glyph-name="cedilla" unicode="&#xb8;" horiz-adv-x="217" 
d="M30 -102l-53 31l117 131l71 -66l-27 -25q59 -32 59 -97q0 -45 -32.5 -77t-78.5 -32q-50 0 -94 50l43 57q6 -7 18 -7q11 0 18 7.5t7 17.5t-7 17.5t-18 7.5q-16 0 -23 -15z" />
    <glyph glyph-name="guillemotright" unicode="&#xbb;" horiz-adv-x="699" 
d="M601 326v-81l-247 -170v148l108 62l-108 60v148zM333 326v-81l-247 -170v148l108 62l-108 60v148z" />
    <glyph glyph-name="Agrave" unicode="&#xc0;" horiz-adv-x="694" 
d="M383 750l308 -750h-172l-61 144h-255l-59 -144h-173l309 750h103zM254 277h154l-77 216zM403 790h-134l-115 135l140 71z" />
    <glyph glyph-name="Aacute" unicode="&#xc1;" horiz-adv-x="694" 
d="M383 750l308 -750h-172l-61 144h-255l-59 -144h-173l309 750h103zM254 277h154l-77 216zM397 791h-134l109 206l139 -71z" />
    <glyph glyph-name="Acircumflex" unicode="&#xc2;" horiz-adv-x="694" 
d="M383 750l308 -750h-172l-61 144h-255l-59 -144h-173l309 750h103zM254 277h154l-77 216zM398 987l125 -196h-137l-56 70l-56 -70h-138l127 196h135z" />
    <glyph glyph-name="Adieresis" unicode="&#xc4;" horiz-adv-x="694" 
d="M383 750l308 -750h-172l-61 144h-255l-59 -144h-173l309 750h103zM254 277h154l-77 216zM313 865q0 -31 -23 -53t-56 -22t-55.5 21.5t-22.5 53.5q0 31 22.5 52t55.5 21t56 -21t23 -52zM503 865q0 -31 -23 -53t-56 -22t-56 22t-23 53t23 52t56 21t56 -21t23 -52z" />
    <glyph glyph-name="Ccedilla" unicode="&#xc7;" horiz-adv-x="769" 
d="M605 228l106 -106q-117 -131 -295 -131q-161 0 -273 110.5t-112 273.5q0 162 112 272.5t273 110.5q178 0 296 -132l-108 -108q-31 51 -81 79t-107 28q-97 0 -161 -75t-64 -175t64 -175.5t161 -75.5q48 0 92 21.5t97 82.5zM327 -102l-53 31l117 131l71 -66l-27 -25
q59 -32 59 -97q0 -45 -32.5 -77t-78.5 -32q-50 0 -94 50l43 57q6 -7 18 -7q10 0 17.5 7.5t7.5 17.5t-7.5 17.5t-17.5 7.5q-16 0 -23 -15z" />
    <glyph glyph-name="Egrave" unicode="&#xc8;" horiz-adv-x="658" 
d="M227 133h382v-133h-542v750h524v-133h-364v-161h298v-134h-298v-189zM453 790h-134l-115 135l140 71z" />
    <glyph glyph-name="Eacute" unicode="&#xc9;" horiz-adv-x="658" 
d="M227 133h382v-133h-542v750h524v-133h-364v-161h298v-134h-298v-189zM409 800h-134l109 206l139 -71z" />
    <glyph glyph-name="Ecircumflex" unicode="&#xca;" horiz-adv-x="658" 
d="M227 133h382v-133h-542v750h524v-133h-364v-161h298v-134h-298v-189zM406 987l125 -196h-137l-56 70l-56 -70h-138l127 196h135z" />
    <glyph glyph-name="Edieresis" unicode="&#xcb;" horiz-adv-x="658" 
d="M227 133h382v-133h-542v750h524v-133h-364v-161h298v-134h-298v-189zM313 865q0 -31 -23 -53t-56 -22t-55.5 21.5t-22.5 53.5q0 31 22.5 52t55.5 21t56 -21t23 -52zM503 865q0 -31 -23 -53t-56 -22t-56 22t-23 53t23 52t56 21t56 -21t23 -52z" />
    <glyph glyph-name="Igrave" unicode="&#xcc;" horiz-adv-x="311" 
d="M221 0v750h-160v-750h160zM212 790h-134l-115 135l140 71z" />
    <glyph glyph-name="Iacute" unicode="&#xcd;" horiz-adv-x="311" 
d="M221 0v750h-160v-750h160zM207 791h-134l109 206l139 -71z" />
    <glyph glyph-name="Icircumflex" unicode="&#xce;" horiz-adv-x="311" 
d="M221 0v750h-160v-750h160zM212 987l125 -196h-137l-56 70l-56 -70h-138l127 196h135z" />
    <glyph glyph-name="Idieresis" unicode="&#xcf;" horiz-adv-x="311" 
d="M221 750v-750h-160v750h160zM124 865q0 -31 -23 -53t-56 -22t-55.5 21.5t-22.5 53.5q0 31 22.5 52t55.5 21t56 -21t23 -52zM314 865q0 -31 -23 -53t-56 -22t-56 22t-23 53t23 52t56 21t56 -21t23 -52z" />
    <glyph glyph-name="Ograve" unicode="&#xd2;" horiz-adv-x="832" 
d="M398 625q-96 0 -160.5 -75.5t-64.5 -174.5t64.5 -175t160.5 -76q97 0 161 75.5t64 175.5t-64 175t-161 75zM398 758q161 0 273 -110.5t112 -272.5q0 -163 -112 -273.5t-273 -110.5t-273 110.5t-112 273.5q0 162 112 272.5t273 110.5zM463 790h-134l-115 135l140 71z" />
    <glyph glyph-name="Oacute" unicode="&#xd3;" horiz-adv-x="832" 
d="M398 625q-96 0 -160.5 -75.5t-64.5 -174.5t64.5 -175t160.5 -76q97 0 161 75.5t64 175.5t-64 175t-161 75zM398 758q161 0 273 -110.5t112 -272.5q0 -163 -112 -273.5t-273 -110.5t-273 110.5t-112 273.5q0 162 112 272.5t273 110.5zM466 791h-134l109 206l139 -71z" />
    <glyph glyph-name="Ocircumflex" unicode="&#xd4;" horiz-adv-x="832" 
d="M398 625q-96 0 -160.5 -75.5t-64.5 -174.5t64.5 -175t160.5 -76q97 0 161 75.5t64 175.5t-64 175t-161 75zM398 758q161 0 273 -110.5t112 -272.5q0 -163 -112 -273.5t-273 -110.5t-273 110.5t-112 273.5q0 162 112 272.5t273 110.5zM475 987l125 -196h-137l-56 70
l-56 -70h-138l127 196h135z" />
    <glyph glyph-name="Odieresis" unicode="&#xd6;" horiz-adv-x="832" 
d="M398 625q-96 0 -160.5 -75.5t-64.5 -174.5t64.5 -175t160.5 -76q97 0 161 75.5t64 175.5t-64 175t-161 75zM398 758q161 0 273 -110.5t112 -272.5q0 -163 -112 -273.5t-273 -110.5t-273 110.5t-112 273.5q0 162 112 272.5t273 110.5zM382 865q0 -31 -23 -53t-56 -22
t-55.5 21.5t-22.5 53.5q0 31 22.5 52t55.5 21t56 -21t23 -52zM572 865q0 -31 -23 -53t-56 -22t-56 22t-23 53t23 52t56 21t56 -21t23 -52z" />
    <glyph glyph-name="multiply" unicode="&#xd7;" horiz-adv-x="484" 
d="M412 345l-91 -90l91 -90l-92 -91l-90 89l-89 -89l-94 91l91 90l-91 90l93 93l90 -90l90 90z" />
    <glyph glyph-name="Ugrave" unicode="&#xd9;" horiz-adv-x="732" 
d="M495 750h161v-451q0 -41 -7 -79.5t-27.5 -81.5t-53.5 -74.5t-90 -52t-132 -20.5q-74 0 -131.5 20.5t-90.5 52t-54 74.5t-28 81.5t-7 79.5v451h160v-451q0 -16 1.5 -33t10.5 -44t24 -47.5t45 -35.5t70 -15t70 15t44.5 35t23 48t10 44t1.5 33v451zM433 790h-134l-115 135
l140 71z" />
    <glyph glyph-name="Uacute" unicode="&#xda;" horiz-adv-x="732" 
d="M495 750h161v-451q0 -41 -7 -79.5t-27.5 -81.5t-53.5 -74.5t-90 -52t-132 -20.5q-74 0 -131.5 20.5t-90.5 52t-54 74.5t-28 81.5t-7 79.5v451h160v-451q0 -16 1.5 -33t10.5 -44t24 -47.5t45 -35.5t70 -15t70 15t44.5 35t23 48t10 44t1.5 33v451zM397 791h-134l109 206
l139 -71z" />
    <glyph glyph-name="Ucircumflex" unicode="&#xdb;" horiz-adv-x="732" 
d="M495 750h161v-451q0 -41 -7 -79.5t-27.5 -81.5t-53.5 -74.5t-90 -52t-132 -20.5q-74 0 -131.5 20.5t-90.5 52t-54 74.5t-28 81.5t-7 79.5v451h160v-451q0 -16 1.5 -33t10.5 -44t24 -47.5t45 -35.5t70 -15t70 15t44.5 35t23 48t10 44t1.5 33v451zM418 987l125 -196h-137
l-56 70l-56 -70h-138l127 196h135z" />
    <glyph glyph-name="Udieresis" unicode="&#xdc;" horiz-adv-x="732" 
d="M495 750h161v-451q0 -41 -7 -79.5t-27.5 -81.5t-53.5 -74.5t-90 -52t-132 -20.5q-74 0 -131.5 20.5t-90.5 52t-54 74.5t-28 81.5t-7 79.5v451h160v-451q0 -16 1.5 -33t10.5 -44t24 -47.5t45 -35.5t70 -15t70 15t44.5 35t23 48t10 44t1.5 33v451zM331 865q0 -31 -23 -53
t-56 -22t-55.5 21.5t-22.5 53.5q0 31 22.5 52t55.5 21t56 -21t23 -52zM521 865q0 -31 -23 -53t-56 -22t-56 22t-23 53t23 52t56 21t56 -21t23 -52z" />
    <glyph glyph-name="germandbls" unicode="&#xdf;" horiz-adv-x="651" 
d="M245 40v112q5 -3 19.5 -15.5t22.5 -18t24.5 -11t35.5 -5.5q34 0 52 24t20 64q-1 20 1 41.5t-7 43t-24.5 38.5t-50 27.5t-84.5 10.5v102q96 0 104 88q7 74 -59 82q-30 4 -51 -9t-32 -32.5t-17 -52.5t-7 -56.5t-1 -57.5v-415h-141v415q0 167 62.5 251t166.5 84
q118 0 180.5 -47.5t69.5 -132.5q6 -76 -25.5 -123t-77.5 -47q62 0 113 -57t51 -143t-53.5 -145.5t-169.5 -59.5q-80 0 -122 45z" />
    <glyph glyph-name="agrave" unicode="&#xe0;" horiz-adv-x="527" 
d="M162 348l-110 63q81 91 206 91q103 0 155.5 -46.5t52.5 -110.5v-345h-148v35q-40 -42 -110 -42q-187 0 -187 152q0 79 59.5 126.5t160.5 47.5h77q0 28 -19 44.5t-51 16.5q-57 0 -86 -32zM318 163v44h-87q-30 0 -48 -18.5t-14 -46.5q6 -38 62 -38q44 0 65.5 19t21.5 40z
M348 540h-134l-115 135l140 71z" />
    <glyph glyph-name="aacute" unicode="&#xe1;" horiz-adv-x="527" 
d="M162 348l-110 63q81 91 206 91q103 0 155.5 -46.5t52.5 -110.5v-345h-148v35q-40 -42 -110 -42q-187 0 -187 152q0 79 59.5 126.5t160.5 47.5h77q0 28 -19 44.5t-51 16.5q-57 0 -86 -32zM318 163v44h-87q-30 0 -48 -18.5t-14 -46.5q6 -38 62 -38q44 0 65.5 19t21.5 40z
M324 550h-134l109 206l139 -71z" />
    <glyph glyph-name="acircumflex" unicode="&#xe2;" horiz-adv-x="527" 
d="M162 348l-110 63q81 91 206 91q103 0 155.5 -46.5t52.5 -110.5v-345h-148v35q-40 -42 -110 -42q-187 0 -187 152q0 79 59.5 126.5t160.5 47.5h77q0 28 -19 44.5t-51 16.5q-57 0 -86 -32zM318 163v44h-87q-30 0 -48 -18.5t-14 -46.5q6 -38 62 -38q44 0 65.5 19t21.5 40z
M332 736l125 -196h-137l-56 70l-56 -70h-138l127 196h135z" />
    <glyph glyph-name="adieresis" unicode="&#xe4;" horiz-adv-x="527" 
d="M162 348l-110 63q81 91 206 91q103 0 155.5 -46.5t52.5 -110.5v-345h-148v35q-40 -42 -110 -42q-187 0 -187 152q0 79 59.5 126.5t160.5 47.5h77q0 28 -19 44.5t-51 16.5q-57 0 -86 -32zM318 163v44h-87q-30 0 -48 -18.5t-14 -46.5q6 -38 62 -38q44 0 65.5 19t21.5 40z
M247 636q0 -31 -23 -53t-56 -22t-55.5 21.5t-22.5 53.5q0 31 22.5 52t55.5 21t56 -21t23 -52zM437 636q0 -31 -23 -53t-56 -22t-56 22t-23 53t23 52t56 21t56 -21t23 -52z" />
    <glyph glyph-name="ccedilla" unicode="&#xe7;" horiz-adv-x="540" 
d="M395 177l104 -94q-82 -91 -207 -91q-109 0 -184.5 72.5t-75.5 181.5t75.5 182t184.5 73q125 0 207 -91l-104 -94q-27 63 -103 63q-47 0 -79.5 -37.5t-32.5 -95.5q0 -57 32.5 -94.5t79.5 -37.5q78 0 103 63zM203 -102l-53 31l117 131l71 -66l-27 -25q59 -32 59 -97
q0 -45 -32.5 -77t-78.5 -32q-50 0 -94 50l43 57q6 -7 18 -7q10 0 17.5 7.5t7.5 17.5t-7.5 17.5t-17.5 7.5q-16 0 -23 -15z" />
    <glyph glyph-name="egrave" unicode="&#xe8;" horiz-adv-x="566" 
d="M518 246v-33h-352q0 -41 34.5 -70t73.5 -29q82 0 115 61l99 -91q-68 -92 -214 -92q-119 0 -190 71t-71 183t68.5 183.5t183.5 71.5t184 -71t69 -184zM169 307h194q-12 72 -98 72q-39 0 -64 -19.5t-32 -52.5zM347 540h-134l-115 135l140 71z" />
    <glyph glyph-name="eacute" unicode="&#xe9;" horiz-adv-x="561" 
d="M518 246v-33h-352q0 -41 34.5 -70t73.5 -29q82 0 115 61l99 -91q-68 -92 -214 -92q-119 0 -190 71t-71 183t68.5 183.5t183.5 71.5t184 -71t69 -184zM169 307h194q-12 72 -98 72q-39 0 -64 -19.5t-32 -52.5zM343 550h-134l109 206l139 -71z" />
    <glyph glyph-name="ecircumflex" unicode="&#xea;" horiz-adv-x="566" 
d="M518 246v-33h-352q0 -41 34.5 -70t73.5 -29q82 0 115 61l99 -91q-68 -92 -214 -92q-119 0 -190 71t-71 183t68.5 183.5t183.5 71.5t184 -71t69 -184zM169 307h194q-12 72 -98 72q-39 0 -64 -19.5t-32 -52.5zM341 736l125 -196h-137l-56 70l-56 -70h-138l127 196h135z" />
    <glyph glyph-name="edieresis" unicode="&#xeb;" horiz-adv-x="566" 
d="M518 246v-33h-352q0 -41 34.5 -70t73.5 -29q82 0 115 61l99 -91q-68 -92 -214 -92q-119 0 -190 71t-71 183t68.5 183.5t183.5 71.5t184 -71t69 -184zM169 307h194q-12 72 -98 72q-39 0 -64 -19.5t-32 -52.5zM251 636q0 -31 -23 -53t-56 -22t-55.5 21.5t-22.5 53.5
q0 31 22.5 52t55.5 21t56 -21t23 -52zM441 636q0 -31 -23 -53t-56 -22t-56 22t-23 53t23 52t56 21t56 -21t23 -52z" />
    <glyph glyph-name="igrave" unicode="&#xec;" horiz-adv-x="263" 
d="M195 0v494h-148v-494h148zM189 540h-134l-115 135l140 71z" />
    <glyph glyph-name="iacute" unicode="&#xed;" horiz-adv-x="263" 
d="M195 0v494h-148v-494h148zM184 550h-134l109 206l139 -71z" />
    <glyph glyph-name="icircumflex" unicode="&#xee;" horiz-adv-x="263" 
d="M195 0v494h-148v-494h148zM190 736l125 -196h-137l-56 70l-56 -70h-138l127 196h135z" />
    <glyph glyph-name="idieresis" unicode="&#xef;" horiz-adv-x="263" 
d="M195 494v-494h-148v494h148zM106 636q0 -31 -23 -53t-56 -22t-55.5 21.5t-22.5 53.5q0 31 22.5 52t55.5 21t56 -21t23 -52zM296 636q0 -31 -23 -53t-56 -22t-56 22t-23 53t23 52t56 21t56 -21t23 -52z" />
    <glyph glyph-name="ograve" unicode="&#xf2;" horiz-adv-x="596" 
d="M283 379q-47 0 -79.5 -37.5t-32.5 -95.5q0 -57 32.5 -94.5t79.5 -37.5t80 37t33 95t-33 95.5t-80 37.5zM283 501q110 0 185.5 -73t75.5 -182t-75.5 -181.5t-185.5 -72.5q-109 0 -184.5 72.5t-75.5 181.5t75.5 182t184.5 73zM352 540h-134l-115 135l140 71z" />
    <glyph glyph-name="oacute" unicode="&#xf3;" horiz-adv-x="596" 
d="M283 379q-47 0 -79.5 -37.5t-32.5 -95.5q0 -57 32.5 -94.5t79.5 -37.5t80 37t33 95t-33 95.5t-80 37.5zM283 501q110 0 185.5 -73t75.5 -182t-75.5 -181.5t-185.5 -72.5q-109 0 -184.5 72.5t-75.5 181.5t75.5 182t184.5 73zM348 550h-134l109 206l139 -71z" />
    <glyph glyph-name="ocircumflex" unicode="&#xf4;" horiz-adv-x="596" 
d="M283 379q-47 0 -79.5 -37.5t-32.5 -95.5q0 -57 32.5 -94.5t79.5 -37.5t80 37t33 95t-33 95.5t-80 37.5zM283 501q110 0 185.5 -73t75.5 -182t-75.5 -181.5t-185.5 -72.5q-109 0 -184.5 72.5t-75.5 181.5t75.5 182t184.5 73zM357 736l125 -196h-137l-56 70l-56 -70h-138
l127 196h135z" />
    <glyph glyph-name="odieresis" unicode="&#xf6;" horiz-adv-x="596" 
d="M283 379q-47 0 -79.5 -37.5t-32.5 -95.5q0 -57 32.5 -94.5t79.5 -37.5t80 37t33 95t-33 95.5t-80 37.5zM283 501q110 0 185.5 -73t75.5 -182t-75.5 -181.5t-185.5 -72.5q-109 0 -184.5 72.5t-75.5 181.5t75.5 182t184.5 73zM269 636q0 -31 -23 -53t-56 -22t-55.5 21.5
t-22.5 53.5q0 31 22.5 52t55.5 21t56 -21t23 -52zM459 636q0 -31 -23 -53t-56 -22t-56 22t-23 53t23 52t56 21t56 -21t23 -52z" />
    <glyph glyph-name="ugrave" unicode="&#xf9;" horiz-adv-x="571" 
d="M40 212v282h148v-282q0 -58 18 -83t60 -25q95 0 95 108v282h148v-494h-148v45q-20 -25 -58.5 -39t-73.5 -14q-103 0 -146 51.5t-43 168.5zM360 540h-134l-115 135l140 71z" />
    <glyph glyph-name="uacute" unicode="&#xfa;" horiz-adv-x="571" 
d="M40 212v282h148v-282q0 -58 18 -83t60 -25q95 0 95 108v282h148v-494h-148v45q-20 -25 -58.5 -39t-73.5 -14q-103 0 -146 51.5t-43 168.5zM316 550h-134l109 206l139 -71z" />
    <glyph glyph-name="ucircumflex" unicode="&#xfb;" horiz-adv-x="571" 
d="M40 212v282h148v-282q0 -58 18 -83t60 -25q95 0 95 108v282h148v-494h-148v45q-20 -25 -58.5 -39t-73.5 -14q-103 0 -146 51.5t-43 168.5zM344 736l125 -196h-137l-56 70l-56 -70h-138l127 196h135z" />
    <glyph glyph-name="udieresis" unicode="&#xfc;" horiz-adv-x="571" 
d="M40 212v282h148v-282q0 -58 18 -83t60 -25q95 0 95 108v282h148v-494h-148v45q-20 -25 -58.5 -39t-73.5 -14q-103 0 -146 51.5t-43 168.5zM257 636q0 -31 -23 -53t-56 -22t-55.5 21.5t-22.5 53.5q0 31 22.5 52t55.5 21t56 -21t23 -52zM447 636q0 -31 -23 -53t-56 -22
t-56 22t-23 53t23 52t56 21t56 -21t23 -52z" />
    <glyph glyph-name="ydieresis" unicode="&#xff;" horiz-adv-x="493" 
d="M340 494h154l-203 -480q-29 -69 -49 -108.5t-47 -77t-57.5 -53.5t-69.5 -16q-43 0 -112 55l43 122q33 -31 67 -31q12 0 23 7t21 23.5t16 27.5t14.5 37l11 34t9.5 34l-181 426h154l103 -247zM222 636q0 -31 -23 -53t-56 -22t-55.5 21.5t-22.5 53.5q0 31 22.5 52t55.5 21
t56 -21t23 -52zM412 636q0 -31 -23 -53t-56 -22t-56 22t-23 53t23 52t56 21t56 -21t23 -52z" />
    <glyph glyph-name="Ydieresis" unicode="&#x178;" horiz-adv-x="689" 
d="M542 750h192l-310 -454v-296h-161v296l-310 454h192l198 -303zM327 865q0 -31 -23 -53t-56 -22t-55.5 21.5t-22.5 53.5q0 31 22.5 52t55.5 21t56 -21t23 -52zM517 865q0 -31 -23 -53t-56 -22t-56 22t-23 53t23 52t56 21t56 -21t23 -52z" />
    <glyph glyph-name="circumflex" unicode="&#x2c6;" 
d="M326 736l125 -196h-137l-56 70l-56 -70h-138l127 196h135z" />
    <glyph glyph-name="hungarumlaut" unicode="&#x2dd;" 
 />
    <glyph glyph-name="endash" unicode="&#x2013;" horiz-adv-x="535" 
d="M455 329v-126h-390v126h390z" />
    <glyph glyph-name="emdash" unicode="&#x2014;" horiz-adv-x="755" 
d="M675 329v-126h-610v126h610z" />
    <glyph glyph-name="quoteleft" unicode="&#x2018;" horiz-adv-x="246" 
d="M23 523q0 28 16 52l96 137h84l-39 -123q30 -27 30 -66q0 -37 -27 -63t-66 -26q-40 0 -67 25.5t-27 63.5z" />
    <glyph glyph-name="quoteright" unicode="&#x2019;" horiz-adv-x="266" 
d="M220 624q0 -27 -16 -51l-96 -138h-85l40 122q-31 28 -31 67q0 37 27 62.5t66 25.5q40 0 67.5 -25.5t27.5 -62.5z" />
    <glyph glyph-name="quotedblleft" unicode="&#x201c;" horiz-adv-x="482" 
d="M26 523q0 28 16 52l96 137h83l-38 -123q30 -27 30 -66q0 -37 -27 -63t-66 -26q-40 0 -67 25.5t-27 63.5zM259 523q0 27 17 52l95 137h84l-39 -123q30 -27 30 -66q0 -37 -27 -63t-65 -26q-40 0 -67.5 25.5t-27.5 63.5z" />
    <glyph glyph-name="quotedblright" unicode="&#x201d;" horiz-adv-x="454" 
d="M222 624q0 -29 -16 -51l-95 -138h-85l40 122q-31 28 -31 67q0 37 27 62.5t66 25.5q40 0 67 -25.5t27 -62.5zM455 624q0 -27 -16 -51l-96 -138h-85l40 122q-31 29 -31 67q0 37 27.5 62.5t65.5 25.5q40 0 67.5 -25.5t27.5 -62.5z" />
    <glyph glyph-name="quotedblbase" unicode="&#x201e;" horiz-adv-x="534" 
d="M222 82q0 -29 -17 -52l1 1l-95 -138h-86l41 122q-31 28 -31 67q0 37 27 62.5t66 25.5q40 0 67 -25.5t27 -62.5zM454 82q0 -27 -17 -52l1 1l-96 -138h-85l40 122q-31 29 -31 67q0 37 27.5 62.5t65.5 25.5q40 0 67.5 -25.5t27.5 -62.5z" />
    <glyph glyph-name="bullet" unicode="&#x2022;" horiz-adv-x="301" 
d="M230 372q0 -38 -27 -64t-67 -26t-67 26t-27 64q0 37 27 62.5t67 25.5t67 -25.5t27 -62.5z" />
    <glyph glyph-name="ellipsis" unicode="&#x2026;" horiz-adv-x="777" 
d="M221 81q0 -38 -27.5 -64t-67.5 -26t-67 26t-27 64q0 36 27.5 62t66.5 26q40 0 67.5 -26t27.5 -62zM450 81q0 -38 -27.5 -64t-67.5 -26t-67 26t-27 64q0 36 27.5 62t66.5 26q40 0 67.5 -26t27.5 -62zM679 81q0 -38 -27.5 -64t-67.5 -26t-67 26t-27 64q0 36 27.5 62
t66.5 26q40 0 67.5 -26t27.5 -62z" />
    <glyph glyph-name="Euro" unicode="&#x20ac;" horiz-adv-x="808" 
d="M541 207h-240q62 -83 171 -83q121 0 190 104l106 -106q-119 -131 -296 -131q-254 0 -348 216h-85v107h52l-3 19h-49v107h53q21 141 124.5 229.5t255.5 88.5q177 0 297 -132l-108 -108q-62 107 -189 107q-83 0 -139 -51t-78 -134h286v-107h-292l4 -19h288v-107z" />
    <glyph glyph-name="Delta" unicode="&#x2206;" horiz-adv-x="833" 
 />
    <glyph glyph-name="minus" unicode="&#x2212;" horiz-adv-x="536" 
d="M455 192h-390v126h390v-126z" />
    <glyph glyph-name="NULL" horiz-adv-x="0" 
 />
    <glyph glyph-name="CR" horiz-adv-x="300" 
 />
    </font>
</defs>
</svg>
